<svg xmlns="http://www.w3.org/2000/svg" width="32" height="32" fill="none"><path d="M4.707 2.538h22.529v23.587H4.707z" style="fill:#fff"/><path fill="#1f1f1f" fill-rule="evenodd" d="M1.743 2.601A2.597 2.597 0 0 1 4.335 0h23.33a2.597 2.597 0 0 1 2.592 2.601v23.411a2.597 2.597 0 0 1-2.592 2.602H12.548l-3.872 3.208a.77.77 0 0 1-1.261-.597v-2.611h-3.08a2.597 2.597 0 0 1-2.592-2.602Zm5.67 2.127h12.462c2.691 0 4.873 2.19 4.873 4.89 0 2.164-1.4 4-3.342 4.644a4.887 4.887 0 0 1 3.99 4.81c0 2.701-2.181 4.89-4.873 4.89H7.413v-9.454Zm10.364 4.4H11.95v2.934h5.828c.808 0 1.462-.656 1.462-1.467 0-.81-.654-1.467-1.462-1.467zm-5.828 6.52h6.314c.897 0 1.624.73 1.624 1.63 0 .901-.727 1.63-1.624 1.63h-6.314z" clip-rule="evenodd" style="stroke-width:1.51775"/></svg>
